       <svg
          width="311"
          height="56"
          viewBox="0 0 311 56"
          fill="white"
          xmlns="http://www.w3.org/2000/svg"
        >
          <path
            d="M80.18 32.52C81.34 32.52 82.43 32.4 83.45 32.16C84.47 31.92 85.35 31.52 86.09 30.96C86.85 30.4 87.44 29.68 87.86 28.8C88.3 27.9 88.52 26.8 88.52 25.5C88.52 24.2 88.3 23.11 87.86 22.23C87.44 21.33 86.85 20.6 86.09 20.04C85.35 19.48 84.47 19.08 83.45 18.84C82.43 18.6 81.34 18.48 80.18 18.48H69.5V32.52H80.18ZM80.18 20.16C81.08 20.16 81.93 20.25 82.73 20.43C83.55 20.59 84.26 20.88 84.86 21.3C85.48 21.72 85.97 22.27 86.33 22.95C86.71 23.63 86.9 24.48 86.9 25.5C86.9 26.52 86.72 27.38 86.36 28.08C86 28.76 85.51 29.31 84.89 29.73C84.27 30.13 83.55 30.42 82.73 30.6C81.93 30.76 81.08 30.84 80.18 30.84H71.12V20.16H80.18ZM80.18 16.65C81.64 16.65 82.99 16.81 84.23 17.13C85.47 17.43 86.55 17.94 87.47 18.66C88.39 19.36 89.11 20.27 89.63 21.39C90.15 22.51 90.41 23.88 90.41 25.5C90.41 27.12 90.15 28.49 89.63 29.61C89.11 30.73 88.39 31.65 87.47 32.37C86.55 33.07 85.47 33.58 84.23 33.9C82.99 34.2 81.64 34.35 80.18 34.35H67.67V16.65H80.18ZM80.18 36.03C81.92 36.03 83.51 35.84 84.95 35.46C86.41 35.08 87.66 34.47 88.7 33.63C89.76 32.79 90.58 31.7 91.16 30.36C91.76 29.02 92.06 27.4 92.06 25.5C92.06 23.6 91.76 21.98 91.16 20.64C90.58 19.3 89.76 18.21 88.7 17.37C87.66 16.53 86.41 15.92 84.95 15.54C83.51 15.16 81.92 14.97 80.18 14.97H66.02V36.03H80.18ZM65.27 14.22H80.18C81.32 14.22 82.42 14.28 83.48 14.4C84.54 14.5 85.58 14.74 86.6 15.12C87.64 15.5 88.67 16.06 89.69 16.8C90.73 17.54 91.79 18.54 92.87 19.8C93.77 20.7 94.47 21.93 94.97 23.49C95.47 25.03 95.72 26.7 95.72 28.5C95.72 30.52 95.41 32.24 94.79 33.66C94.17 35.08 93.3 36.23 92.18 37.11C91.08 38.01 89.76 38.66 88.22 39.06C86.68 39.48 85 39.69 83.18 39.69H68.36L65.27 36.78V14.22ZM74.78 30.09H80.18C80.98 30.09 81.74 30.02 82.46 29.88C83.18 29.72 83.81 29.47 84.35 29.13C84.91 28.77 85.35 28.3 85.67 27.72C85.99 27.12 86.15 26.38 86.15 25.5C86.15 25.06 86.1 24.62 86 24.18C85.12 23.94 84.18 23.82 83.18 23.82H74.78V30.09ZM119.424 24.6V26.4H104.154V32.52H122.544V34.35H102.294V16.65H122.514V18.48H104.154V24.6H119.424ZM124.194 20.16V14.97H100.614V36.03H124.224V30.84H105.804V28.05H121.074V22.95H105.804V20.16H124.194ZM99.864 36.78V14.22H124.944L127.854 17.31V23.82H123.264L124.734 25.29V30.09L127.884 33.18V39.69H102.954L99.864 36.78ZM145.257 34.35C143.137 31.37 141.027 28.42 138.927 25.5C136.827 22.58 134.717 19.63 132.597 16.65H134.997L146.037 32.13C147.857 29.55 149.657 26.98 151.437 24.42C153.237 21.84 155.037 19.25 156.837 16.65H159.087L146.697 34.35H145.257ZM155.937 14.97C154.277 17.37 152.627 19.76 150.987 22.14C149.347 24.52 147.677 26.9 145.977 29.28L135.807 14.97H129.447L144.447 36.03H147.597L162.297 14.97H155.937ZM166.557 17.31L150.957 39.69H147.087L144.057 36.78L127.977 14.22H136.797L139.167 17.31L146.337 27.48C146.957 26.62 147.577 25.74 148.197 24.84C148.837 23.92 149.517 22.94 150.237 21.9C150.977 20.84 151.777 19.69 152.637 18.45C153.497 17.19 154.467 15.78 155.547 14.22H163.707L166.557 17.31ZM186.924 24.6V26.4H171.654V34.35H169.794V16.65H190.014V18.48H171.654V24.6H186.924ZM191.694 20.16V14.97H168.114V36.03H173.304V28.05H188.574V22.95H173.304V20.16H191.694ZM167.364 36.78V14.22H192.444L195.354 17.31V23.82H190.764L192.234 25.29V31.71H176.964V39.69H170.454L167.364 36.78ZM212.924 32.52C214.084 32.52 215.164 32.4 216.164 32.16C217.184 31.9 218.064 31.5 218.804 30.96C219.564 30.4 220.154 29.68 220.574 28.8C220.994 27.9 221.204 26.8 221.204 25.5C221.204 24.22 220.984 23.13 220.544 22.23C220.124 21.33 219.544 20.61 218.804 20.07C218.064 19.51 217.184 19.11 216.164 18.87C215.164 18.61 214.084 18.48 212.924 18.48H209.624C208.444 18.48 207.344 18.61 206.324 18.87C205.324 19.11 204.454 19.51 203.714 20.07C202.974 20.61 202.384 21.33 201.944 22.23C201.524 23.13 201.314 24.22 201.314 25.5C201.314 26.8 201.524 27.9 201.944 28.8C202.384 29.68 202.974 30.4 203.714 30.96C204.454 31.52 205.324 31.92 206.324 32.16C207.344 32.4 208.444 32.52 209.624 32.52H212.924ZM209.624 30.84C208.724 30.84 207.874 30.75 207.074 30.57C206.274 30.39 205.574 30.1 204.974 29.7C204.374 29.28 203.894 28.73 203.534 28.05C203.174 27.37 202.994 26.52 202.994 25.5C202.994 24.5 203.174 23.66 203.534 22.98C203.894 22.3 204.374 21.75 204.974 21.33C205.594 20.91 206.304 20.61 207.104 20.43C207.904 20.25 208.744 20.16 209.624 20.16H212.924C213.804 20.16 214.644 20.25 215.444 20.43C216.244 20.61 216.944 20.91 217.544 21.33C218.144 21.75 218.624 22.3 218.984 22.98C219.344 23.66 219.524 24.5 219.524 25.5C219.524 26.5 219.344 27.34 218.984 28.02C218.644 28.7 218.174 29.25 217.574 29.67C216.974 30.09 216.274 30.39 215.474 30.57C214.674 30.75 213.824 30.84 212.924 30.84H209.624ZM199.424 25.5C199.424 23.88 199.674 22.51 200.174 21.39C200.694 20.27 201.404 19.36 202.304 18.66C203.224 17.94 204.304 17.43 205.544 17.13C206.804 16.81 208.164 16.65 209.624 16.65H212.924C214.384 16.65 215.734 16.81 216.974 17.13C218.214 17.45 219.284 17.96 220.184 18.66C221.104 19.36 221.814 20.27 222.314 21.39C222.834 22.51 223.094 23.88 223.094 25.5C223.094 27.12 222.834 28.49 222.314 29.61C221.814 30.73 221.104 31.64 220.184 32.34C219.284 33.04 218.214 33.55 216.974 33.87C215.734 34.19 214.384 34.35 212.924 34.35H209.624C208.164 34.35 206.804 34.2 205.544 33.9C204.304 33.58 203.224 33.07 202.304 32.37C201.404 31.65 200.694 30.73 200.174 29.61C199.674 28.49 199.424 27.12 199.424 25.5ZM197.744 25.5C197.744 27.4 198.034 29.02 198.614 30.36C199.214 31.68 200.034 32.76 201.074 33.6C202.134 34.44 203.384 35.06 204.824 35.46C206.284 35.84 207.884 36.03 209.624 36.03H212.924C214.664 36.03 216.254 35.84 217.694 35.46C219.134 35.06 220.374 34.44 221.414 33.6C222.474 32.76 223.294 31.68 223.874 30.36C224.454 29.02 224.744 27.4 224.744 25.5C224.744 23.6 224.454 21.99 223.874 20.67C223.294 19.33 222.474 18.24 221.414 17.4C220.374 16.56 219.134 15.95 217.694 15.57C216.254 15.17 214.664 14.97 212.924 14.97H209.624C207.884 14.97 206.284 15.17 204.824 15.57C203.384 15.95 202.134 16.56 201.074 17.4C200.034 18.24 199.214 19.33 198.614 20.67C198.034 21.99 197.744 23.6 197.744 25.5ZM196.994 25.5C196.994 23.46 197.304 21.73 197.924 20.31C198.544 18.87 199.414 17.7 200.534 16.8C201.654 15.9 202.984 15.25 204.524 14.85C206.084 14.43 207.784 14.22 209.624 14.22H212.924C214.084 14.22 215.174 14.29 216.194 14.43C217.234 14.55 218.254 14.82 219.254 15.24C220.254 15.64 221.244 16.22 222.224 16.98C223.224 17.72 224.254 18.72 225.314 19.98C226.214 20.88 226.954 22.07 227.534 23.55C228.114 25.03 228.404 26.68 228.404 28.5C228.404 30.52 228.094 32.24 227.474 33.66C226.874 35.08 226.014 36.23 224.894 37.11C223.794 38.01 222.474 38.66 220.934 39.06C219.414 39.48 217.744 39.69 215.924 39.69H212.624C210.584 39.69 208.684 39.46 206.924 39C205.164 38.54 203.714 37.75 202.574 36.63C201.434 35.63 200.504 34.69 199.784 33.81C199.064 32.91 198.494 32.02 198.074 31.14C197.674 30.26 197.394 29.36 197.234 28.44C197.074 27.52 196.994 26.54 196.994 25.5ZM212.924 30.09C213.704 30.09 214.444 30.02 215.144 29.88C215.864 29.72 216.494 29.46 217.034 29.1C217.574 28.74 217.994 28.27 218.294 27.69C218.614 27.09 218.774 26.36 218.774 25.5C218.774 25.02 218.714 24.58 218.594 24.18C217.774 23.94 216.884 23.82 215.924 23.82H212.624C211.824 23.82 211.064 23.9 210.344 24.06C209.624 24.22 208.984 24.48 208.424 24.84C207.884 25.2 207.454 25.68 207.134 26.28C206.814 26.88 206.654 27.62 206.654 28.5C206.654 28.98 206.694 29.38 206.774 29.7C207.194 29.84 207.644 29.94 208.124 30C208.604 30.06 209.104 30.09 209.624 30.09H212.924ZM235.723 16.65V32.52H252.673V34.35H233.923V16.65H235.723ZM254.323 36.03V30.84H237.403V14.97H232.273V36.03H254.323ZM231.523 14.22H238.153L241.063 17.31V30.09H255.073L257.983 33.18V39.69H234.613L231.523 36.78V14.22ZM264.417 16.65H266.217V34.35H264.417V16.65ZM267.867 14.97H262.767V36.03H267.867V14.97ZM262.017 36.78V14.22H268.617L271.527 17.31V39.69H265.107L262.017 36.78ZM291.762 32.52C292.922 32.52 294.002 32.4 295.002 32.16C296.022 31.9 296.902 31.5 297.642 30.96C298.402 30.4 298.992 29.68 299.412 28.8C299.832 27.9 300.042 26.8 300.042 25.5C300.042 24.22 299.822 23.13 299.382 22.23C298.962 21.33 298.382 20.61 297.642 20.07C296.902 19.51 296.022 19.11 295.002 18.87C294.002 18.61 292.922 18.48 291.762 18.48H288.462C287.282 18.48 286.182 18.61 285.162 18.87C284.162 19.11 283.292 19.51 282.552 20.07C281.812 20.61 281.222 21.33 280.782 22.23C280.362 23.13 280.152 24.22 280.152 25.5C280.152 26.8 280.362 27.9 280.782 28.8C281.222 29.68 281.812 30.4 282.552 30.96C283.292 31.52 284.162 31.92 285.162 32.16C286.182 32.4 287.282 32.52 288.462 32.52H291.762ZM288.462 30.84C287.562 30.84 286.712 30.75 285.912 30.57C285.112 30.39 284.412 30.1 283.812 29.7C283.212 29.28 282.732 28.73 282.372 28.05C282.012 27.37 281.832 26.52 281.832 25.5C281.832 24.5 282.012 23.66 282.372 22.98C282.732 22.3 283.212 21.75 283.812 21.33C284.432 20.91 285.142 20.61 285.942 20.43C286.742 20.25 287.582 20.16 288.462 20.16H291.762C292.642 20.16 293.482 20.25 294.282 20.43C295.082 20.61 295.782 20.91 296.382 21.33C296.982 21.75 297.462 22.3 297.822 22.98C298.182 23.66 298.362 24.5 298.362 25.5C298.362 26.5 298.182 27.34 297.822 28.02C297.482 28.7 297.012 29.25 296.412 29.67C295.812 30.09 295.112 30.39 294.312 30.57C293.512 30.75 292.662 30.84 291.762 30.84H288.462ZM278.262 25.5C278.262 23.88 278.512 22.51 279.012 21.39C279.532 20.27 280.242 19.36 281.142 18.66C282.062 17.94 283.142 17.43 284.382 17.13C285.642 16.81 287.002 16.65 288.462 16.65H291.762C293.222 16.65 294.572 16.81 295.812 17.13C297.052 17.45 298.122 17.96 299.022 18.66C299.942 19.36 300.652 20.27 301.152 21.39C301.672 22.51 301.932 23.88 301.932 25.5C301.932 27.12 301.672 28.49 301.152 29.61C300.652 30.73 299.942 31.64 299.022 32.34C298.122 33.04 297.052 33.55 295.812 33.87C294.572 34.19 293.222 34.35 291.762 34.35H288.462C287.002 34.35 285.642 34.2 284.382 33.9C283.142 33.58 282.062 33.07 281.142 32.37C280.242 31.65 279.532 30.73 279.012 29.61C278.512 28.49 278.262 27.12 278.262 25.5ZM276.582 25.5C276.582 27.4 276.872 29.02 277.452 30.36C278.052 31.68 278.872 32.76 279.912 33.6C280.972 34.44 282.222 35.06 283.662 35.46C285.122 35.84 286.722 36.03 288.462 36.03H291.762C293.502 36.03 295.092 35.84 296.532 35.46C297.972 35.06 299.212 34.44 300.252 33.6C301.312 32.76 302.132 31.68 302.712 30.36C303.292 29.02 303.582 27.4 303.582 25.5C303.582 23.6 303.292 21.99 302.712 20.67C302.132 19.33 301.312 18.24 300.252 17.4C299.212 16.56 297.972 15.95 296.532 15.57C295.092 15.17 293.502 14.97 291.762 14.97H288.462C286.722 14.97 285.122 15.17 283.662 15.57C282.222 15.95 280.972 16.56 279.912 17.4C278.872 18.24 278.052 19.33 277.452 20.67C276.872 21.99 276.582 23.6 276.582 25.5ZM275.832 25.5C275.832 23.46 276.142 21.73 276.762 20.31C277.382 18.87 278.252 17.7 279.372 16.8C280.492 15.9 281.822 15.25 283.362 14.85C284.922 14.43 286.622 14.22 288.462 14.22H291.762C292.922 14.22 294.012 14.29 295.032 14.43C296.072 14.55 297.092 14.82 298.092 15.24C299.092 15.64 300.082 16.22 301.062 16.98C302.062 17.72 303.092 18.72 304.152 19.98C305.052 20.88 305.792 22.07 306.372 23.55C306.952 25.03 307.242 26.68 307.242 28.5C307.242 30.52 306.932 32.24 306.312 33.66C305.712 35.08 304.852 36.23 303.732 37.11C302.632 38.01 301.312 38.66 299.772 39.06C298.252 39.48 296.582 39.69 294.762 39.69H291.462C289.422 39.69 287.522 39.46 285.762 39C284.002 38.54 282.552 37.75 281.412 36.63C280.272 35.63 279.342 34.69 278.622 33.81C277.902 32.91 277.332 32.02 276.912 31.14C276.512 30.26 276.232 29.36 276.072 28.44C275.912 27.52 275.832 26.54 275.832 25.5ZM291.762 30.09C292.542 30.09 293.282 30.02 293.982 29.88C294.702 29.72 295.332 29.46 295.872 29.1C296.412 28.74 296.832 28.27 297.132 27.69C297.452 27.09 297.612 26.36 297.612 25.5C297.612 25.02 297.552 24.58 297.432 24.18C296.612 23.94 295.722 23.82 294.762 23.82H291.462C290.662 23.82 289.902 23.9 289.182 24.06C288.462 24.22 287.822 24.48 287.262 24.84C286.722 25.2 286.292 25.68 285.972 26.28C285.652 26.88 285.492 27.62 285.492 28.5C285.492 28.98 285.532 29.38 285.612 29.7C286.032 29.84 286.482 29.94 286.962 30C287.442 30.06 287.942 30.09 288.462 30.09H291.762Z"
            fill="black"
          />
          <path
            d="M6.53329 7.46667H4.66663V11.2H6.53329V7.46667Z"
            fill="black"
          />
          <path
            d="M6.53329 14.9333H4.66663V18.6667H6.53329V14.9333Z"
            fill="black"
          />
          <path d="M6.53329 22.4H4.66663V26.1334H6.53329V22.4Z" fill="black" />
          <path d="M3.73333 4.66669H0V6.53335H3.73333V4.66669Z" fill="black" />
          <path d="M11.2 4.66669H7.46667V6.53335H11.2V4.66669Z" fill="black" />
          <path
            d="M18.6667 4.66669H14.9333V6.53335H18.6667V4.66669Z"
            fill="black"
          />
          <path
            d="M26.1334 4.66669H22.4V6.53335H26.1334V4.66669Z"
            fill="black"
          />
          <path d="M33.6 4.66669H29.8667V6.53335H33.6V4.66669Z" fill="black" />
          <path
            d="M41.0667 4.66669H37.3334V6.53335H41.0667V4.66669Z"
            fill="black"
          />
          <path
            d="M48.5334 4.66669H44.8V6.53335H48.5334V4.66669Z"
            fill="black"
          />
          <path
            d="M56.0001 4.66669H52.2667V6.53335H56.0001V4.66669Z"
            fill="black"
          />
          <path d="M6.53329 52.2667H4.66663V56H6.53329V52.2667Z" fill="black" />
          <path
            d="M28.9333 7.46667H27.0667V11.2H28.9333V7.46667Z"
            fill="black"
          />
          <path
            d="M28.9333 14.9333H27.0667V18.6667H28.9333V14.9333Z"
            fill="black"
          />
          <path d="M28.9333 22.4H27.0667V26.1334H28.9333V22.4Z" fill="black" />
          <path d="M28.9333 52.2667H27.0667V56H28.9333V52.2667Z" fill="black" />
          <path
            d="M51.3333 7.46667H49.4667V11.2H51.3333V7.46667Z"
            fill="black"
          />
          <path
            d="M51.3333 29.8666H49.4667V33.6H51.3333V29.8666Z"
            fill="black"
          />
          <path
            d="M51.3333 37.3333H49.4667V41.0666H51.3333V37.3333Z"
            fill="black"
          />
          <path d="M51.3333 44.8H49.4667V48.5333H51.3333V44.8Z" fill="black" />
          <path d="M51.3333 52.2667H49.4667V56H51.3333V52.2667Z" fill="black" />
          <path d="M6.53329 0H4.66663V3.73333H6.53329V0Z" fill="black" />
          <path d="M28.9333 0H27.0667V3.73333H28.9333V0Z" fill="black" />
          <path d="M51.3333 0H49.4667V3.73333H51.3333V0Z" fill="black" />
          <path d="M3.73333 27.0667H0V28.9333H3.73333V27.0667Z" fill="black" />
          <path
            d="M56.0001 27.0667H52.2667V28.9333H56.0001V27.0667Z"
            fill="black"
          />
          <path d="M3.73333 49.4667H0V51.3333H3.73333V49.4667Z" fill="black" />
          <path d="M33.6 49.4667H29.8667V51.3333H33.6V49.4667Z" fill="black" />
          <path
            d="M41.0667 49.4667H37.3334V51.3333H41.0667V49.4667Z"
            fill="black"
          />
          <path
            d="M48.5334 49.4667H44.8V51.3333H48.5334V49.4667Z"
            fill="black"
          />
          <path
            d="M56.0001 49.4667H52.2667V51.3333H56.0001V49.4667Z"
            fill="black"
          />
          <path
            d="M6.53333 49.4667V28.9333H27.0667V35.0803L15.2068 46.9401C15.1645 46.9907 15.1278 47.0458 15.0976 47.1044C15.0789 47.1333 15.0472 47.1511 15.0313 47.1828L13.8899 49.4667H6.53333ZM16.1224 49.1755L18.0245 51.0776L14.2203 52.9797L16.1224 49.1755ZM27.0667 49.4667H22.7864L27.0667 45.1864V49.4667ZM19.6 50.0136L17.1864 47.6L48.5333 16.2531L50.9469 18.6667L19.6 50.0136ZM53.6331 15.9796L52.2667 17.3469L49.8531 14.9333L51.2195 13.566C51.4582 13.3274 51.7623 13.1649 52.0934 13.0991C52.4244 13.0332 52.7676 13.067 53.0794 13.1962C53.3913 13.3254 53.6579 13.5441 53.8455 13.8247C54.033 14.1053 54.1332 14.4352 54.1333 14.7728C54.1322 15.2253 53.9524 15.659 53.6331 15.9796V15.9796Z"
            fill="black"
          />
        </svg>